<mxfile host="Electron" agent="Mozilla/5.0 (Macintosh; Intel Mac OS X 10_15_7) AppleWebKit/537.36 (KHTML, like Gecko) draw.io/28.2.8 Chrome/140.0.7339.240 Electron/38.4.0 Safari/537.36" version="28.2.8">
  <diagram name="Page-1" id="KJyRulrHksh6T3ehGoB_">
    <mxGraphModel dx="1013" dy="660" grid="1" gridSize="10" guides="1" tooltips="1" connect="1" arrows="1" fold="1" page="1" pageScale="1" pageWidth="850" pageHeight="1100" math="0" shadow="0">
      <root>
        <mxCell id="0" />
        <mxCell id="1" parent="0" />
        <mxCell id="dYZjHWAVcxG1_9DPOuqA-20" value="Buttons" style="rounded=0;whiteSpace=wrap;html=1;" vertex="1" parent="1">
          <mxGeometry x="140" y="310" width="60" height="50" as="geometry" />
        </mxCell>
        <mxCell id="dYZjHWAVcxG1_9DPOuqA-1" value="MCU&lt;div&gt;Zephyr RTOS&lt;/div&gt;&lt;div&gt;&lt;br&gt;&lt;/div&gt;" style="rounded=1;whiteSpace=wrap;html=1;" vertex="1" parent="1">
          <mxGeometry x="300" y="170" width="270" height="320" as="geometry" />
        </mxCell>
        <mxCell id="dYZjHWAVcxG1_9DPOuqA-16" style="edgeStyle=orthogonalEdgeStyle;rounded=0;orthogonalLoop=1;jettySize=auto;html=1;exitX=1;exitY=0.5;exitDx=0;exitDy=0;startArrow=classic;startFill=1;entryX=0.55;entryY=0.95;entryDx=0;entryDy=0;entryPerimeter=0;" edge="1" parent="1" source="dYZjHWAVcxG1_9DPOuqA-19" target="dYZjHWAVcxG1_9DPOuqA-15">
          <mxGeometry relative="1" as="geometry" />
        </mxCell>
        <mxCell id="dYZjHWAVcxG1_9DPOuqA-4" value="LED" style="rounded=0;whiteSpace=wrap;html=1;" vertex="1" parent="1">
          <mxGeometry x="330" y="118" width="40" height="30" as="geometry" />
        </mxCell>
        <mxCell id="dYZjHWAVcxG1_9DPOuqA-5" value="Buttons" style="rounded=0;whiteSpace=wrap;html=1;" vertex="1" parent="1">
          <mxGeometry x="150" y="320" width="60" height="50" as="geometry" />
        </mxCell>
        <mxCell id="dYZjHWAVcxG1_9DPOuqA-6" value="" style="group" vertex="1" connectable="0" parent="1">
          <mxGeometry x="320" y="450" width="50" height="30" as="geometry" />
        </mxCell>
        <mxCell id="dYZjHWAVcxG1_9DPOuqA-2" value="ADC" style="rounded=0;whiteSpace=wrap;html=1;" vertex="1" parent="dYZjHWAVcxG1_9DPOuqA-6">
          <mxGeometry x="10" width="40" height="30" as="geometry" />
        </mxCell>
        <mxCell id="dYZjHWAVcxG1_9DPOuqA-3" value="" style="triangle;whiteSpace=wrap;html=1;rotation=-180;" vertex="1" parent="dYZjHWAVcxG1_9DPOuqA-6">
          <mxGeometry width="10" height="30" as="geometry" />
        </mxCell>
        <mxCell id="dYZjHWAVcxG1_9DPOuqA-7" value="GPIO" style="rounded=0;whiteSpace=wrap;html=1;" vertex="1" parent="1">
          <mxGeometry x="325" y="350" width="40" height="30" as="geometry" />
        </mxCell>
        <mxCell id="dYZjHWAVcxG1_9DPOuqA-14" style="edgeStyle=orthogonalEdgeStyle;rounded=0;orthogonalLoop=1;jettySize=auto;html=1;exitX=1;exitY=0.5;exitDx=0;exitDy=0;entryX=0;entryY=0.5;entryDx=0;entryDy=0;" edge="1" parent="1" source="dYZjHWAVcxG1_9DPOuqA-8" target="dYZjHWAVcxG1_9DPOuqA-9">
          <mxGeometry relative="1" as="geometry" />
        </mxCell>
        <mxCell id="dYZjHWAVcxG1_9DPOuqA-8" value="PWM" style="rounded=0;whiteSpace=wrap;html=1;" vertex="1" parent="1">
          <mxGeometry x="510" y="450" width="40" height="30" as="geometry" />
        </mxCell>
        <mxCell id="dYZjHWAVcxG1_9DPOuqA-13" style="edgeStyle=orthogonalEdgeStyle;rounded=0;orthogonalLoop=1;jettySize=auto;html=1;exitX=0.5;exitY=1;exitDx=0;exitDy=0;entryX=1;entryY=0.5;entryDx=0;entryDy=0;" edge="1" parent="1" source="dYZjHWAVcxG1_9DPOuqA-9" target="dYZjHWAVcxG1_9DPOuqA-10">
          <mxGeometry relative="1" as="geometry" />
        </mxCell>
        <mxCell id="dYZjHWAVcxG1_9DPOuqA-9" value="Servo" style="rounded=0;whiteSpace=wrap;html=1;" vertex="1" parent="1">
          <mxGeometry x="600" y="450" width="80" height="30" as="geometry" />
        </mxCell>
        <mxCell id="dYZjHWAVcxG1_9DPOuqA-12" style="edgeStyle=orthogonalEdgeStyle;rounded=0;orthogonalLoop=1;jettySize=auto;html=1;exitX=0;exitY=0.5;exitDx=0;exitDy=0;entryX=1;entryY=0.5;entryDx=0;entryDy=0;" edge="1" parent="1" source="dYZjHWAVcxG1_9DPOuqA-10" target="dYZjHWAVcxG1_9DPOuqA-3">
          <mxGeometry relative="1" as="geometry">
            <mxPoint x="310" y="440" as="targetPoint" />
            <Array as="points">
              <mxPoint x="240" y="580" />
              <mxPoint x="240" y="465" />
            </Array>
          </mxGeometry>
        </mxCell>
        <mxCell id="dYZjHWAVcxG1_9DPOuqA-10" value="Table&lt;div&gt;&lt;br&gt;&lt;/div&gt;&lt;div&gt;&lt;br&gt;&lt;/div&gt;&lt;div&gt;&lt;br&gt;&lt;/div&gt;&lt;div&gt;&lt;br&gt;&lt;/div&gt;&lt;div&gt;&lt;br&gt;&lt;/div&gt;&lt;div&gt;&lt;br&gt;&lt;/div&gt;&lt;div&gt;&lt;br&gt;&lt;/div&gt;" style="rounded=0;whiteSpace=wrap;html=1;" vertex="1" parent="1">
          <mxGeometry x="330" y="510" width="210" height="140" as="geometry" />
        </mxCell>
        <mxCell id="dYZjHWAVcxG1_9DPOuqA-11" value="" style="ellipse;whiteSpace=wrap;html=1;aspect=fixed;" vertex="1" parent="1">
          <mxGeometry x="420" y="570" width="20" height="20" as="geometry" />
        </mxCell>
        <mxCell id="dYZjHWAVcxG1_9DPOuqA-15" value="AWS-IoT" style="ellipse;shape=cloud;whiteSpace=wrap;html=1;" vertex="1" parent="1">
          <mxGeometry x="600" y="50" width="120" height="80" as="geometry" />
        </mxCell>
        <mxCell id="dYZjHWAVcxG1_9DPOuqA-17" value="Wi-Fi" style="rounded=0;whiteSpace=wrap;html=1;" vertex="1" parent="1">
          <mxGeometry x="600" y="180" width="90" height="40" as="geometry" />
        </mxCell>
        <mxCell id="dYZjHWAVcxG1_9DPOuqA-19" value="SPI" style="rounded=0;whiteSpace=wrap;html=1;" vertex="1" parent="1">
          <mxGeometry x="510" y="190" width="40" height="30" as="geometry" />
        </mxCell>
        <mxCell id="dYZjHWAVcxG1_9DPOuqA-21" value="Buttons" style="rounded=0;whiteSpace=wrap;html=1;" vertex="1" parent="1">
          <mxGeometry x="160" y="330" width="60" height="50" as="geometry" />
        </mxCell>
        <mxCell id="dYZjHWAVcxG1_9DPOuqA-26" style="edgeStyle=orthogonalEdgeStyle;rounded=0;orthogonalLoop=1;jettySize=auto;html=1;exitX=1;exitY=0.5;exitDx=0;exitDy=0;entryX=0;entryY=0.5;entryDx=0;entryDy=0;" edge="1" parent="1" source="dYZjHWAVcxG1_9DPOuqA-22" target="dYZjHWAVcxG1_9DPOuqA-7">
          <mxGeometry relative="1" as="geometry" />
        </mxCell>
        <mxCell id="dYZjHWAVcxG1_9DPOuqA-22" value="Buttons" style="rounded=0;whiteSpace=wrap;html=1;" vertex="1" parent="1">
          <mxGeometry x="170" y="340" width="60" height="50" as="geometry" />
        </mxCell>
        <mxCell id="dYZjHWAVcxG1_9DPOuqA-23" value="GUI" style="rounded=0;whiteSpace=wrap;html=1;" vertex="1" parent="1">
          <mxGeometry x="600" y="380" width="80" height="40" as="geometry" />
        </mxCell>
        <mxCell id="dYZjHWAVcxG1_9DPOuqA-25" style="edgeStyle=orthogonalEdgeStyle;rounded=0;orthogonalLoop=1;jettySize=auto;html=1;exitX=1;exitY=0.5;exitDx=0;exitDy=0;entryX=0;entryY=0.5;entryDx=0;entryDy=0;" edge="1" parent="1" source="dYZjHWAVcxG1_9DPOuqA-24" target="dYZjHWAVcxG1_9DPOuqA-23">
          <mxGeometry relative="1" as="geometry" />
        </mxCell>
        <mxCell id="dYZjHWAVcxG1_9DPOuqA-24" value="SPI" style="rounded=0;whiteSpace=wrap;html=1;" vertex="1" parent="1">
          <mxGeometry x="510" y="385" width="40" height="30" as="geometry" />
        </mxCell>
        <mxCell id="dYZjHWAVcxG1_9DPOuqA-28" style="edgeStyle=orthogonalEdgeStyle;rounded=0;orthogonalLoop=1;jettySize=auto;html=1;exitX=0.5;exitY=0;exitDx=0;exitDy=0;entryX=0.5;entryY=1;entryDx=0;entryDy=0;" edge="1" parent="1" source="dYZjHWAVcxG1_9DPOuqA-27" target="dYZjHWAVcxG1_9DPOuqA-4">
          <mxGeometry relative="1" as="geometry" />
        </mxCell>
        <mxCell id="dYZjHWAVcxG1_9DPOuqA-27" value="GPIO" style="rounded=0;whiteSpace=wrap;html=1;" vertex="1" parent="1">
          <mxGeometry x="330" y="188" width="40" height="30" as="geometry" />
        </mxCell>
        <mxCell id="dYZjHWAVcxG1_9DPOuqA-31" style="edgeStyle=orthogonalEdgeStyle;rounded=0;orthogonalLoop=1;jettySize=auto;html=1;exitX=0.5;exitY=0;exitDx=0;exitDy=0;entryX=0.5;entryY=1;entryDx=0;entryDy=0;startArrow=classic;startFill=1;" edge="1" parent="1" source="dYZjHWAVcxG1_9DPOuqA-29" target="dYZjHWAVcxG1_9DPOuqA-30">
          <mxGeometry relative="1" as="geometry" />
        </mxCell>
        <mxCell id="dYZjHWAVcxG1_9DPOuqA-29" value="UART" style="rounded=0;whiteSpace=wrap;html=1;" vertex="1" parent="1">
          <mxGeometry x="415" y="188" width="40" height="30" as="geometry" />
        </mxCell>
        <mxCell id="dYZjHWAVcxG1_9DPOuqA-30" value="Console" style="rounded=0;whiteSpace=wrap;html=1;" vertex="1" parent="1">
          <mxGeometry x="400" y="118" width="70" height="30" as="geometry" />
        </mxCell>
        <mxCell id="dYZjHWAVcxG1_9DPOuqA-32" value="Security Coprocessor" style="rounded=0;whiteSpace=wrap;html=1;" vertex="1" parent="1">
          <mxGeometry x="600" y="232" width="80" height="40" as="geometry" />
        </mxCell>
        <mxCell id="dYZjHWAVcxG1_9DPOuqA-33" style="edgeStyle=orthogonalEdgeStyle;rounded=0;orthogonalLoop=1;jettySize=auto;html=1;exitX=1;exitY=0.5;exitDx=0;exitDy=0;entryX=0;entryY=0.5;entryDx=0;entryDy=0;" edge="1" parent="1" source="dYZjHWAVcxG1_9DPOuqA-34" target="dYZjHWAVcxG1_9DPOuqA-32">
          <mxGeometry relative="1" as="geometry" />
        </mxCell>
        <mxCell id="dYZjHWAVcxG1_9DPOuqA-34" value="SPI" style="rounded=0;whiteSpace=wrap;html=1;" vertex="1" parent="1">
          <mxGeometry x="510" y="237" width="40" height="30" as="geometry" />
        </mxCell>
        <mxCell id="dYZjHWAVcxG1_9DPOuqA-36" value="BLE" style="rounded=0;whiteSpace=wrap;html=1;" vertex="1" parent="1">
          <mxGeometry x="600" y="300" width="80" height="40" as="geometry" />
        </mxCell>
        <mxCell id="dYZjHWAVcxG1_9DPOuqA-37" style="edgeStyle=orthogonalEdgeStyle;rounded=0;orthogonalLoop=1;jettySize=auto;html=1;exitX=1;exitY=0.5;exitDx=0;exitDy=0;entryX=0;entryY=0.5;entryDx=0;entryDy=0;" edge="1" parent="1" source="dYZjHWAVcxG1_9DPOuqA-38" target="dYZjHWAVcxG1_9DPOuqA-36">
          <mxGeometry relative="1" as="geometry" />
        </mxCell>
        <mxCell id="dYZjHWAVcxG1_9DPOuqA-38" value="UART" style="rounded=0;whiteSpace=wrap;html=1;" vertex="1" parent="1">
          <mxGeometry x="510" y="305" width="40" height="30" as="geometry" />
        </mxCell>
        <mxCell id="dYZjHWAVcxG1_9DPOuqA-39" value="" style="rounded=0;whiteSpace=wrap;html=1;fillColor=none;dashed=1;dashPattern=8 8;" vertex="1" parent="1">
          <mxGeometry x="490" y="290" width="210" height="70" as="geometry" />
        </mxCell>
        <mxCell id="dYZjHWAVcxG1_9DPOuqA-40" value="Optionally&amp;nbsp;&lt;div&gt;Integrated&amp;nbsp;&lt;/div&gt;&lt;div&gt;in&lt;/div&gt;&lt;div&gt;MCU&lt;/div&gt;" style="text;html=1;whiteSpace=wrap;strokeColor=none;fillColor=none;align=center;verticalAlign=middle;rounded=0;" vertex="1" parent="1">
          <mxGeometry x="710" y="315" width="60" height="30" as="geometry" />
        </mxCell>
      </root>
    </mxGraphModel>
  </diagram>
</mxfile>
